<svg width="161" height="56" viewBox="0 0 161 56" fill="none" xmlns="http://www.w3.org/2000/svg">
<path d="M25.2163 55.17L24.5923 46.824C24.0203 46.876 23.4483 46.902 22.8763 46.902C22.3563 46.902 21.8103 46.902 21.2383 46.902C17.0263 46.902 13.2043 46.46 9.77227 45.576C6.39227 44.64 3.84427 43.496 2.12827 42.144C1.60827 40.012 1.24427 38.088 1.03627 36.372C0.880274 34.604 0.802274 32.914 0.802274 31.302C0.802274 27.714 1.24427 24.308 2.12827 21.084C3.06427 17.86 4.31227 14.922 5.87227 12.27C7.43227 9.566 9.14827 7.252 11.0203 5.328C12.9443 3.404 14.8943 1.948 16.8703 0.959999L31.1443 10.476C28.1803 11.984 25.3463 13.804 22.6423 15.936C19.9383 18.068 17.5203 20.434 15.3883 23.034C13.3083 25.582 11.6703 28.26 10.4743 31.068C9.27827 33.824 8.68027 36.606 8.68027 39.414C11.1243 39.726 13.6463 39.882 16.2463 39.882C17.5463 39.882 18.8463 39.856 20.1463 39.804C21.4463 39.7 22.7463 39.544 24.0463 39.336L23.2663 27.48L36.8383 26.544L33.8743 54.312L25.2163 55.17ZM65.5557 55.794C62.6957 55.794 59.9917 55.43 57.4437 54.702C54.9477 53.974 52.7377 52.726 50.8137 50.958C49.0977 46.798 47.9017 42.846 47.2257 39.102C46.6017 35.306 46.2897 31.796 46.2897 28.572C46.2897 24.516 46.7057 20.876 47.5377 17.652C48.3697 14.428 49.4097 11.672 50.6577 9.384C51.9057 7.096 53.1277 5.302 54.3237 4.002C56.4557 3.326 58.3277 2.858 59.9397 2.598C61.6037 2.286 63.1897 2.13 64.6977 2.13C67.5577 2.13 70.2357 2.494 72.7317 3.222C75.2797 3.95 77.5157 5.198 79.4397 6.966C81.1557 11.126 82.3257 15.104 82.9497 18.9C83.6257 22.644 83.9637 26.128 83.9637 29.352C83.9637 33.408 83.5477 37.048 82.7157 40.272C81.8837 43.496 80.8437 46.252 79.5957 48.54C78.3997 50.828 77.1777 52.622 75.9297 53.922C73.8497 54.598 71.9777 55.066 70.3137 55.326C68.6497 55.638 67.0637 55.794 65.5557 55.794ZM62.2797 48.618C64.8277 45.81 66.9597 42.586 68.6757 38.946C70.3917 35.306 71.6917 31.536 72.5757 27.636C73.5117 23.684 73.9797 19.888 73.9797 16.248C73.9797 15.104 73.9277 14.012 73.8237 12.972C73.7717 11.88 73.6417 10.84 73.4337 9.852C71.9257 9.488 70.1057 9.306 67.9737 9.306C65.4777 12.114 63.3457 15.364 61.5777 19.056C59.8617 22.696 58.5357 26.466 57.5997 30.366C56.7157 34.266 56.2737 38.036 56.2737 41.676C56.2737 42.82 56.2997 43.938 56.3517 45.03C56.4557 46.07 56.6117 47.084 56.8197 48.072C58.3277 48.436 60.1477 48.618 62.2797 48.618ZM120.355 55.17L119.731 46.824C119.159 46.876 118.587 46.902 118.015 46.902C117.495 46.902 116.949 46.902 116.377 46.902C112.165 46.902 108.343 46.46 104.911 45.576C101.531 44.64 98.9829 43.496 97.2669 42.144C96.7469 40.012 96.3829 38.088 96.1749 36.372C96.0189 34.604 95.9409 32.914 95.9409 31.302C95.9409 27.714 96.3829 24.308 97.2669 21.084C98.2029 17.86 99.4509 14.922 101.011 12.27C102.571 9.566 104.287 7.252 106.159 5.328C108.083 3.404 110.033 1.948 112.009 0.959999L126.283 10.476C123.319 11.984 120.485 13.804 117.781 15.936C115.077 18.068 112.659 20.434 110.527 23.034C108.447 25.582 106.809 28.26 105.613 31.068C104.417 33.824 103.819 36.606 103.819 39.414C106.263 39.726 108.785 39.882 111.385 39.882C112.685 39.882 113.985 39.856 115.285 39.804C116.585 39.7 117.885 39.544 119.185 39.336L118.405 27.48L131.977 26.544L129.013 54.312L120.355 55.17ZM146.498 36.372L144.08 3.222L158.198 0.725998L160.304 3.846L153.44 35.67L146.498 36.372ZM150.164 55.17C148.188 55.17 146.472 54.468 145.016 53.064C143.612 51.608 142.91 49.892 142.91 47.916C142.91 45.94 143.612 44.25 145.016 42.846C146.472 41.39 148.188 40.662 150.164 40.662C152.14 40.662 153.83 41.39 155.234 42.846C156.69 44.25 157.418 45.94 157.418 47.916C157.418 49.892 156.69 51.608 155.234 53.064C153.83 54.468 152.14 55.17 150.164 55.17Z" fill="#0097CE"/>
</svg>
