<svg width="140" height="40" viewBox="0 0 140 40" fill="none" xmlns="http://www.w3.org/2000/svg">
<rect x="0.5" y="0.5" width="139" height="39" rx="5.5" fill="white"/>
<rect x="0.5" y="0.5" width="139" height="39" rx="5.5" stroke="#CECECE"/>
<path d="M33.7045 21.2631C33.7166 20.3432 33.9669 19.4413 34.4321 18.6412C34.8972 17.8411 35.5621 17.1688 36.3648 16.687C35.8548 15.976 35.1821 15.3908 34.4 14.978C33.6178 14.5652 32.7479 14.3361 31.8592 14.309C29.9635 14.1147 28.1258 15.4164 27.1598 15.4164C26.1751 15.4164 24.6878 14.3283 23.0862 14.3604C22.0502 14.3931 21.0406 14.6872 20.1557 15.2141C19.2708 15.741 18.5407 16.4827 18.0367 17.3669C15.8535 21.0573 17.482 26.4809 19.5734 29.464C20.6197 30.9247 21.8426 32.5564 23.4428 32.4985C25.0086 32.4351 25.5934 31.5237 27.4835 31.5237C29.3561 31.5237 29.9048 32.4985 31.5374 32.4617C33.2176 32.4351 34.2762 30.9945 35.2859 29.52C36.0377 28.4792 36.6162 27.3288 37 26.1116C36.0238 25.7085 35.1908 25.0338 34.6048 24.1716C34.0187 23.3094 33.7056 22.2979 33.7045 21.2631Z" fill="black"/>
<path d="M30.6208 12.3471C31.5369 11.2734 31.9883 9.89335 31.879 8.5C30.4794 8.64352 29.1865 9.2966 28.258 10.3291C27.804 10.8335 27.4563 11.4203 27.2348 12.056C27.0132 12.6917 26.9222 13.3638 26.9669 14.0338C27.6669 14.0408 28.3595 13.8927 28.9924 13.6005C29.6254 13.3084 30.1821 12.8798 30.6208 12.3471Z" fill="black"/>
<path d="M45.791 9.00146H47.8608C49.6494 9.00146 50.5195 10.0649 50.5195 11.9941C50.5195 13.9233 49.6406 15 47.8608 15H45.791V9.00146ZM46.7886 9.84082V14.1606H47.751C48.9375 14.1606 49.4956 13.4443 49.4956 12.0073C49.4956 10.5615 48.9331 9.84082 47.751 9.84082H46.7886ZM53.6748 10.2759C54.8877 10.2759 55.7358 11.0625 55.7358 12.3677V12.9697C55.7358 14.3188 54.8877 15.0791 53.6748 15.0791C52.4443 15.0791 51.605 14.3276 51.605 12.9741V12.3721C51.605 11.1021 52.4575 10.2759 53.6748 10.2759ZM53.6792 11.0625C52.9849 11.0625 52.5894 11.6426 52.5894 12.4204V12.939C52.5894 13.7168 52.9585 14.2925 53.6792 14.2925C54.3911 14.2925 54.7559 13.7212 54.7559 12.939V12.4204C54.7559 11.6426 54.3735 11.0625 53.6792 11.0625ZM62.8989 10.355L61.6772 15H60.6841L59.7129 11.5723H59.6865L58.7329 15H57.7354L56.4609 10.355H57.5112L58.2583 13.897H58.3022L59.2383 10.355H60.1567L61.1191 13.897H61.1631L61.9233 10.355H62.8989ZM63.8657 15V10.355H64.8237V11.1899H64.8721C64.9907 10.8252 65.3291 10.2847 66.2695 10.2847C67.2056 10.2847 67.834 10.8032 67.834 11.8623V15H66.8584V12.1479C66.8584 11.4404 66.4893 11.1152 65.9399 11.1152C65.2192 11.1152 64.8413 11.6689 64.8413 12.4204V15H63.8657ZM69.3105 15V8.68506H70.2861V15H69.3105ZM73.6348 10.2759C74.8477 10.2759 75.6958 11.0625 75.6958 12.3677V12.9697C75.6958 14.3188 74.8477 15.0791 73.6348 15.0791C72.4043 15.0791 71.5649 14.3276 71.5649 12.9741V12.3721C71.5649 11.1021 72.4175 10.2759 73.6348 10.2759ZM73.6392 11.0625C72.9448 11.0625 72.5493 11.6426 72.5493 12.4204V12.939C72.5493 13.7168 72.9185 14.2925 73.6392 14.2925C74.3511 14.2925 74.7158 13.7212 74.7158 12.939V12.4204C74.7158 11.6426 74.3335 11.0625 73.6392 11.0625ZM78.2227 15.0703C77.3218 15.0703 76.7021 14.5166 76.7021 13.6509C76.7021 12.8291 77.2734 12.2754 78.3457 12.2754H79.519V11.8403C79.519 11.3086 79.1807 11.0581 78.6445 11.0581C78.1172 11.0581 77.8799 11.2778 77.8052 11.5854H76.8779C76.9351 10.8076 77.5195 10.2847 78.6753 10.2847C79.6685 10.2847 80.4902 10.6978 80.4902 11.8535V15H79.563V14.3979H79.519C79.3125 14.7539 78.9082 15.0703 78.2227 15.0703ZM78.5259 14.3145C79.0796 14.3145 79.519 13.9365 79.519 13.4312V12.9302H78.4995C77.9326 12.9302 77.6821 13.2158 77.6821 13.6025C77.6821 14.0859 78.0864 14.3145 78.5259 14.3145ZM83.4961 10.2935C84.1509 10.2935 84.6519 10.5835 84.832 11.0537H84.8804V8.68506H85.856V15H84.9067V14.2573H84.8584C84.7178 14.7275 84.1597 15.0615 83.4829 15.0615C82.415 15.0615 81.7207 14.3013 81.7207 13.0752V12.2798C81.7207 11.0537 82.4282 10.2935 83.4961 10.2935ZM83.7686 11.0933C83.1182 11.0933 82.7139 11.5767 82.7139 12.4204V12.9302C82.7139 13.7783 83.1226 14.2617 83.7905 14.2617C84.4497 14.2617 84.8804 13.7827 84.8804 12.9917V12.2886C84.8804 11.5723 84.4102 11.0933 83.7686 11.0933ZM91.2129 10.2759C92.4258 10.2759 93.2739 11.0625 93.2739 12.3677V12.9697C93.2739 14.3188 92.4258 15.0791 91.2129 15.0791C89.9824 15.0791 89.1431 14.3276 89.1431 12.9741V12.3721C89.1431 11.1021 89.9956 10.2759 91.2129 10.2759ZM91.2173 11.0625C90.5229 11.0625 90.1274 11.6426 90.1274 12.4204V12.939C90.1274 13.7168 90.4966 14.2925 91.2173 14.2925C91.9292 14.2925 92.2939 13.7212 92.2939 12.939V12.4204C92.2939 11.6426 91.9116 11.0625 91.2173 11.0625ZM94.5308 15V10.355H95.4888V11.1899H95.5371C95.6558 10.8252 95.9941 10.2847 96.9346 10.2847C97.8706 10.2847 98.499 10.8032 98.499 11.8623V15H97.5234V12.1479C97.5234 11.4404 97.1543 11.1152 96.605 11.1152C95.8843 11.1152 95.5063 11.6689 95.5063 12.4204V15H94.5308ZM102.274 10.3857V9.22559H103.228V10.3857H104.269V11.1504H103.228V13.6157C103.228 14.1211 103.417 14.2617 103.939 14.2617C104.071 14.2617 104.247 14.2529 104.322 14.2441V14.9912C104.243 15.0044 103.917 15.0308 103.698 15.0308C102.568 15.0308 102.261 14.6265 102.261 13.6948V11.1504H101.553V10.3857H102.274ZM105.5 15V8.68506H106.471V11.1899H106.519C106.62 10.8604 106.998 10.2847 107.93 10.2847C108.835 10.2847 109.481 10.8076 109.481 11.8667V15H108.51V12.1523C108.51 11.4448 108.119 11.1152 107.565 11.1152C106.866 11.1152 106.471 11.6646 106.471 12.4204V15H105.5ZM112.755 15.0791C111.489 15.0791 110.703 14.3013 110.703 12.9917V12.3633C110.703 11.0449 111.564 10.2759 112.698 10.2759C113.862 10.2759 114.684 11.0845 114.684 12.3633V12.9082H111.669V13.1367C111.669 13.8047 112.065 14.2969 112.75 14.2969C113.26 14.2969 113.612 14.0552 113.678 13.7651H114.631C114.574 14.3013 114.007 15.0791 112.755 15.0791ZM111.669 12.271H113.73V12.2095C113.73 11.5107 113.322 11.0449 112.702 11.0449C112.083 11.0449 111.669 11.5107 111.669 12.2095V12.271Z" fill="black"/>
<path d="M47.2061 31H45.1758L49.3066 19.0029H51.5391L55.6611 31H53.5518L52.4883 27.6777H48.2783L47.2061 31ZM50.4316 21.0771H50.3525L48.7266 26.1484H52.04L50.4316 21.0771ZM61.2644 31.1318C60.0603 31.1318 59.1462 30.5605 58.654 29.708H58.5837V34.085H56.6325V21.71H58.531V23.0723H58.6013C59.1111 22.1846 60.0603 21.5869 61.3083 21.5869C63.3913 21.5869 64.8767 23.1602 64.8767 25.9375V26.7637C64.8767 29.5234 63.4089 31.1318 61.2644 31.1318ZM60.8161 29.5234C62.0554 29.5234 62.8991 28.5303 62.8991 26.6582V26.0078C62.8991 24.2061 62.1081 23.1777 60.781 23.1777C59.4187 23.1777 58.5661 24.2852 58.5661 25.999V26.6582C58.5661 28.416 59.4275 29.5234 60.8161 29.5234ZM71.183 31.1318C69.9789 31.1318 69.0649 30.5605 68.5727 29.708H68.5024V34.085H66.5512V21.71H68.4496V23.0723H68.52C69.0297 22.1846 69.9789 21.5869 71.227 21.5869C73.31 21.5869 74.7954 23.1602 74.7954 25.9375V26.7637C74.7954 29.5234 73.3276 31.1318 71.183 31.1318ZM70.7348 29.5234C71.9741 29.5234 72.8178 28.5303 72.8178 26.6582V26.0078C72.8178 24.2061 72.0268 23.1777 70.6996 23.1777C69.3373 23.1777 68.4848 24.2852 68.4848 25.999V26.6582C68.4848 28.416 69.3461 29.5234 70.7348 29.5234ZM78.8387 27.6689H80.7899C80.8778 28.7061 81.7919 29.5938 83.4882 29.5938C85.0438 29.5938 85.9667 28.8643 85.9667 27.7305C85.9667 26.8164 85.3514 26.3242 84.0682 26.0166L82.0995 25.5244C80.5526 25.1641 79.1639 24.2412 79.1639 22.29C79.1639 19.9961 81.1679 18.7393 83.497 18.7393C85.8261 18.7393 87.7684 19.9961 87.8124 22.2373H85.8964C85.8085 21.2178 85.0262 20.374 83.4706 20.374C82.0995 20.374 81.1679 21.0244 81.1679 22.1406C81.1679 22.9229 81.7128 23.4854 82.829 23.7402L84.7889 24.2236C86.5907 24.6631 87.9618 25.5156 87.9618 27.5547C87.9618 29.9102 86.0546 31.2373 83.3387 31.2373C79.9989 31.2373 78.8827 29.2861 78.8387 27.6689ZM90.3395 21.71V19.4512H92.2555V21.71H94.066V23.2744H92.2555V28.2314C92.2555 29.2422 92.6334 29.5234 93.6793 29.5234C93.8463 29.5234 94.0045 29.5234 94.1188 29.5059V31C93.9605 31.0264 93.5914 31.0615 93.1959 31.0615C90.9371 31.0615 90.3131 30.2529 90.3131 28.3896V23.2744H89.0299V21.71H90.3395ZM99.3353 21.5518C102.007 21.5518 103.457 23.4326 103.457 25.9639V26.7109C103.457 29.3301 102.016 31.1582 99.3353 31.1582C96.6546 31.1582 95.1956 29.3301 95.1956 26.7109V25.9639C95.1956 23.4414 96.6634 21.5518 99.3353 21.5518ZM99.3353 23.1162C97.8851 23.1162 97.1644 24.3027 97.1644 25.9902V26.7021C97.1644 28.3633 97.8763 29.585 99.3353 29.585C100.794 29.585 101.497 28.3721 101.497 26.7021V25.9902C101.497 24.2939 100.785 23.1162 99.3353 23.1162ZM105.106 31V21.71H107.057V22.9316H107.127C107.364 22.3516 108.059 21.5781 109.351 21.5781C109.606 21.5781 109.825 21.5957 110.01 21.6309V23.3535C109.843 23.3096 109.5 23.2832 109.175 23.2832C107.61 23.2832 107.083 24.25 107.083 25.498V31H105.106ZM114.743 31.1582C112.256 31.1582 110.674 29.5146 110.674 26.7637V25.8232C110.674 23.2305 112.22 21.5518 114.664 21.5518C117.142 21.5518 118.636 23.292 118.636 25.9111V26.7988H112.598V27.0186C112.598 28.583 113.442 29.6201 114.769 29.6201C115.762 29.6201 116.439 29.1279 116.677 28.3281H118.531C118.25 29.8311 117.037 31.1582 114.743 31.1582ZM112.598 25.4365H116.729V25.4189C116.729 24.1006 115.912 23.0635 114.673 23.0635C113.416 23.0635 112.598 24.1006 112.598 25.4189V25.4365Z" fill="black"/>
</svg>
