<svg width="140" height="40" viewBox="0 0 140 40" fill="none" xmlns="http://www.w3.org/2000/svg">
<rect x="0.5" y="0.5" width="139" height="39" rx="5.5" fill="white"/>
<rect x="0.5" y="0.5" width="139" height="39" rx="5.5" stroke="#CECECE"/>
<path d="M28.8048 19.4617L19.0896 30.0059C19.0905 30.0078 19.0905 30.0106 19.0914 30.0125C19.3898 31.1574 20.4118 32 21.6254 32C22.1108 32 22.5662 31.8656 22.9567 31.6305L22.9877 31.6118L33.9229 25.1593L28.8048 19.4617Z" fill="#EA4335"/>
<path d="M38.6331 17.6662L38.624 17.6597L33.9028 14.8612L28.5839 19.7013L33.922 25.1582L38.6176 22.3878C39.4407 21.9324 40 21.045 40 20.0223C40 19.0052 39.4489 18.1225 38.6331 17.6662Z" fill="#FBBC04"/>
<path d="M19.0894 9.99331C19.031 10.2135 19 10.4449 19 10.6838V29.3163C19 29.5552 19.031 29.7866 19.0903 30.0059L29.1386 19.7313L19.0894 9.99331Z" fill="#4285F4"/>
<path d="M28.8766 19.9999L33.9044 14.8594L22.9819 8.38351C22.585 8.13996 22.1214 8 21.626 8C20.4124 8 19.3886 8.84447 19.0902 9.99034C19.0902 9.99127 19.0893 9.9922 19.0893 9.99314L28.8766 19.9999Z" fill="#34A853"/>
<path d="M54.61 11.71C54.61 12.71 54.3133 13.5067 53.72 14.1C53.0533 14.8067 52.1767 15.16 51.09 15.16C50.05 15.16 49.17 14.8 48.45 14.08C47.73 13.36 47.37 12.4733 47.37 11.42C47.37 10.3667 47.73 9.48 48.45 8.76C49.17 8.04 50.05 7.68 51.09 7.68C51.6167 7.68 52.1133 7.77333 52.58 7.96C53.0467 8.14667 53.43 8.41 53.73 8.75L53.07 9.41C52.85 9.14333 52.5633 8.93667 52.21 8.79C51.8633 8.63667 51.49 8.56 51.09 8.56C50.31 8.56 49.65 8.83 49.11 9.37C48.5767 9.91667 48.31 10.6 48.31 11.42C48.31 12.24 48.5767 12.9233 49.11 13.47C49.65 14.01 50.31 14.28 51.09 14.28C51.8033 14.28 52.3967 14.08 52.87 13.68C53.3433 13.28 53.6167 12.73 53.69 12.03H51.09V11.17H54.56C54.5933 11.3567 54.61 11.5367 54.61 11.71ZM59.9078 7.84V8.72H56.6478V10.99H59.5878V11.85H56.6478V14.12H59.9078V15H55.7278V7.84H59.9078ZM63.5877 8.72V15H62.6677V8.72H60.6677V7.84H65.5877V8.72H63.5877ZM69.6654 15H68.7454V7.84H69.6654V15ZM73.5487 8.72V15H72.6287V8.72H70.6287V7.84H75.5487V8.72H73.5487ZM85.521 11.42C85.521 12.48 85.1677 13.3667 84.461 14.08C83.7477 14.8 82.8743 15.16 81.841 15.16C80.801 15.16 79.9277 14.8 79.221 14.08C78.5143 13.3667 78.161 12.48 78.161 11.42C78.161 10.36 78.5143 9.47333 79.221 8.76C79.9277 8.04 80.801 7.68 81.841 7.68C82.881 7.68 83.7543 8.04333 84.461 8.77C85.1677 9.48333 85.521 10.3667 85.521 11.42ZM79.101 11.42C79.101 12.2467 79.361 12.93 79.881 13.47C80.4077 14.01 81.061 14.28 81.841 14.28C82.621 14.28 83.271 14.01 83.791 13.47C84.3177 12.9367 84.581 12.2533 84.581 11.42C84.581 10.5867 84.3177 9.90333 83.791 9.37C83.271 8.83 82.621 8.56 81.841 8.56C81.061 8.56 80.4077 8.83 79.881 9.37C79.361 9.91 79.101 10.5933 79.101 11.42ZM87.5267 15H86.6067V7.84H87.7267L91.2067 13.41H91.2467L91.2067 12.03V7.84H92.1267V15H91.1667L87.5267 9.16H87.4867L87.5267 10.54V15Z" fill="black"/>
<path d="M104.518 31.4097H106.147V20.3981H104.518V31.4097ZM119.189 24.3646L117.322 29.1388H117.266L115.328 24.3646H113.573L116.479 31.0371L114.823 34.749H116.521L121 24.3646H119.189ZM109.952 30.1588C109.418 30.1588 108.674 29.8902 108.674 29.2234C108.674 28.3742 109.6 28.0483 110.401 28.0483C111.116 28.0483 111.454 28.2042 111.889 28.4165C111.762 29.4365 110.892 30.1588 109.952 30.1588ZM110.148 24.1241C108.969 24.1241 107.747 24.6482 107.242 25.8101L108.688 26.4188C108.997 25.8101 109.572 25.611 110.176 25.611C111.019 25.611 111.875 26.121 111.889 27.0283V27.1411C111.594 26.971 110.963 26.7165 110.19 26.7165C108.632 26.7165 107.045 27.5806 107.045 29.1952C107.045 30.6689 108.323 31.6184 109.755 31.6184C110.85 31.6184 111.454 31.1225 111.833 30.5411H111.889V31.3912H113.461V27.1692C113.461 25.2146 112.015 24.1241 110.148 24.1241ZM100.082 25.7053H97.7655V21.9308H100.082C101.3 21.9308 101.991 22.9482 101.991 23.8176C101.991 24.6711 101.3 25.7053 100.082 25.7053ZM100.04 20.3981H96.1375V31.4097H97.7655V27.2379H100.04C101.845 27.2379 103.62 25.9184 103.62 23.8176C103.62 21.7168 101.845 20.3981 100.04 20.3981ZM78.7583 30.1606C77.6332 30.1606 76.6913 29.2102 76.6913 27.9047C76.6913 26.5852 77.6332 25.6198 78.7583 25.6198C79.8695 25.6198 80.7406 26.5852 80.7406 27.9047C80.7406 29.2102 79.8695 30.1606 78.7583 30.1606ZM80.6289 24.9812H80.5722C80.2064 24.5417 79.5038 24.1444 78.6178 24.1444C76.7611 24.1444 75.0599 25.7898 75.0599 27.9047C75.0599 30.0047 76.7611 31.6369 78.6178 31.6369C79.5038 31.6369 80.2064 31.2396 80.5722 30.7851H80.6289V31.3251C80.6289 32.7582 79.8695 33.5246 78.6457 33.5246C77.6471 33.5246 77.0282 32.8005 76.7751 32.1901L75.3549 32.7864C75.7626 33.78 76.8458 35 78.6457 35C80.5582 35 82.1757 33.8646 82.1757 31.0978V24.3708H80.6289V24.9812ZM83.3008 31.4097H84.9323V20.3973H83.3008V31.4097ZM87.3362 27.777C87.2943 26.3298 88.4474 25.5916 89.2766 25.5916C89.9243 25.5916 90.4725 25.9176 90.6549 26.3862L87.3362 27.777ZM92.3989 26.528C92.0899 25.6912 91.1472 24.1444 89.2208 24.1444C87.3083 24.1444 85.7196 25.6621 85.7196 27.8907C85.7196 29.9906 87.2943 31.6369 89.4032 31.6369C91.1053 31.6369 92.0899 30.5869 92.4976 29.9765L91.2319 29.1247C90.8103 29.7493 90.2333 30.1606 89.4032 30.1606C88.5739 30.1606 87.983 29.7774 87.6033 29.0261L92.5674 26.9534L92.3989 26.528ZM52.8501 25.2939V26.883H56.6184C56.5058 27.777 56.2107 28.4297 55.7612 28.8834C55.2121 29.4374 54.3541 30.0479 52.8501 30.0479C50.5291 30.0479 48.7152 28.1602 48.7152 25.8189C48.7152 23.4767 50.5291 21.5899 52.8501 21.5899C54.1018 21.5899 55.0157 22.0867 55.6905 22.7254L56.8017 21.604C55.8589 20.6959 54.6081 20 52.8501 20C49.6719 20 47 22.6117 47 25.8189C47 29.0261 49.6719 31.6369 52.8501 31.6369C54.5653 31.6369 55.8589 31.0688 56.8715 30.0047C57.9129 28.9547 58.2358 27.4793 58.2358 26.2866C58.2358 25.9176 58.2079 25.5775 58.1512 25.2939H52.8501ZM62.5208 30.1606C61.3957 30.1606 60.425 29.2243 60.425 27.8907C60.425 26.5421 61.3957 25.6198 62.5208 25.6198C63.6451 25.6198 64.6158 26.5421 64.6158 27.8907C64.6158 29.2243 63.6451 30.1606 62.5208 30.1606ZM62.5208 24.1444C60.4669 24.1444 58.7936 25.7194 58.7936 27.8907C58.7936 30.0479 60.4669 31.6369 62.5208 31.6369C64.5739 31.6369 66.2472 30.0479 66.2472 27.8907C66.2472 25.7194 64.5739 24.1444 62.5208 24.1444ZM70.65 30.1606C69.5249 30.1606 68.5542 29.2243 68.5542 27.8907C68.5542 26.5421 69.5249 25.6198 70.65 25.6198C71.7752 25.6198 72.745 26.5421 72.745 27.8907C72.745 29.2243 71.7752 30.1606 70.65 30.1606ZM70.65 24.1444C68.597 24.1444 66.9237 25.7194 66.9237 27.8907C66.9237 30.0479 68.597 31.6369 70.65 31.6369C72.7031 31.6369 74.3764 30.0479 74.3764 27.8907C74.3764 25.7194 72.7031 24.1444 70.65 24.1444Z" fill="black"/>
</svg>
