<svg width="25" height="24" viewBox="0 0 25 24" fill="none" xmlns="http://www.w3.org/2000/svg">
<g clip-path="url(#clip0_253_741)">
<path d="M23 4.875H22.625V1.125C22.625 0.711375 22.2886 0.375 21.875 0.375H18.875C18.4614 0.375 18.125 0.711375 18.125 1.125V4.875H17.306C17.348 4.75725 17.375 4.632 17.375 4.5C17.375 4.21088 17.2621 3.9495 17.0825 3.75C17.2621 3.5505 17.375 3.28912 17.375 3V1.5C17.375 0.87975 16.8702 0.375 16.25 0.375H9.5C8.87975 0.375 8.375 0.87975 8.375 1.5V3C8.375 3.28912 8.48788 3.5505 8.6675 3.75C8.4875 3.9495 8.375 4.21088 8.375 4.5C8.375 4.632 8.402 4.75725 8.444 4.875H8C7.37975 4.875 6.875 5.37975 6.875 6V9.39412C6.7505 9.38587 6.62675 9.375 6.5 9.375C4.05312 9.375 1.8695 10.9871 1.1375 13.3095C0.978125 13.4475 0.875 13.6485 0.875 13.875V16.125C0.875 16.3515 0.978125 16.5529 1.13787 16.6905C1.86988 19.0129 4.05312 20.625 6.5 20.625C6.62675 20.625 6.7505 20.6141 6.875 20.6059V22.5C6.875 23.1203 7.37975 23.625 8 23.625H23C23.6203 23.625 24.125 23.1203 24.125 22.5V6C24.125 5.37975 23.6203 4.875 23 4.875ZM18.875 1.125H21.875V4.875H21.2803L19.8901 3.48488L19.3599 4.01512L20.2197 4.875H18.875V1.125ZM9.125 1.5C9.125 1.29338 9.293 1.125 9.5 1.125H16.25C16.457 1.125 16.625 1.29338 16.625 1.5V3C16.625 3.20662 16.457 3.375 16.25 3.375H9.5C9.293 3.375 9.125 3.20662 9.125 3V1.5ZM9.125 4.5C9.125 4.29338 9.293 4.125 9.5 4.125H16.25C16.457 4.125 16.625 4.29338 16.625 4.5C16.625 4.70662 16.457 4.875 16.25 4.875H9.5C9.293 4.875 9.125 4.70662 9.125 4.5ZM8 5.625H23C23.207 5.625 23.375 5.79338 23.375 6V7.875H7.625V6C7.625 5.79338 7.793 5.625 8 5.625ZM2.37538 15.0071L2.37575 16.125H1.625V13.875H2.375L2.37538 14.9929C2.37538 14.9951 2.375 14.9978 2.375 15C2.375 15.0026 2.37538 15.0049 2.37538 15.0071ZM2.003 16.875H2.375C2.522 16.875 2.65813 16.8311 2.77363 16.7576C3.4355 18.1545 4.8545 19.125 6.5 19.125C8.77437 19.125 10.625 17.2744 10.625 15C10.625 12.7256 8.77437 10.875 6.5 10.875C4.8545 10.875 3.4355 11.8455 2.77363 13.2424C2.65813 13.1689 2.522 13.125 2.375 13.125H2.003C2.7515 11.3355 4.52638 10.125 6.5 10.125C9.188 10.125 11.375 12.312 11.375 15C11.375 17.688 9.188 19.875 6.5 19.875C4.52638 19.875 2.7515 18.6645 2.003 16.875ZM6.5 11.625C8.36112 11.625 9.875 13.1389 9.875 15C9.875 16.8611 8.36112 18.375 6.5 18.375C4.63888 18.375 3.125 16.8611 3.125 15C3.125 13.1389 4.63888 11.625 6.5 11.625ZM17.7402 20.892L17.3727 17.5837L16.6273 17.6666L16.9771 20.8148L16.187 21.3416C16.0629 21.4245 15.875 21.3248 15.875 21.1744V16.875H15.125V20.3951C14.5381 20.184 13.8909 20.1791 13.298 20.3914L13.5714 16.8375C13.5984 16.4858 13.751 16.1546 14.0004 15.9053C14.201 15.7054 14.5497 15.7054 14.7504 15.9053L14.7687 15.9236L14.228 16.1554L14.5231 16.8446L16.7165 15.9049C16.9554 15.8021 17.2096 15.75 17.4703 15.75C17.5955 15.75 17.7208 15.7796 17.8329 15.8359C18.05 15.9443 18.2056 16.1422 18.2604 16.3785L19.2369 20.61C19.2455 20.6486 19.25 20.6876 19.25 20.727C19.25 20.9527 19.106 21.1526 18.8919 21.2239L18.5285 21.3446C18.2611 21.4357 17.948 21.3071 17.8197 21.0502L17.7402 20.892ZM18.7873 15.7399C18.6369 15.4987 18.4295 15.2955 18.1685 15.1646C17.9525 15.057 17.711 15 17.4703 15C17.1073 15 16.754 15.0724 16.4202 15.2156L15.5109 15.6052L15.2803 15.375C14.7969 14.8916 13.9531 14.8916 13.4697 15.375C13.094 15.7507 12.8645 16.2499 12.8232 16.7797L12.8041 17.028C12.3676 16.4486 12.125 15.7414 12.125 15C12.125 13.1389 13.6389 11.625 15.5 11.625C17.3611 11.625 18.875 13.1389 18.875 15C18.875 15.2501 18.8416 15.4976 18.7873 15.7399ZM12.7261 18.045L12.656 18.9566C12.1771 18.6116 11.7691 18.1785 11.4417 17.685C11.5884 17.4161 11.7087 17.1315 11.8104 16.8386C12.035 17.2894 12.3448 17.6974 12.7261 18.045ZM19.1514 16.905C19.4574 16.3189 19.625 15.6656 19.625 15C19.625 12.7256 17.7744 10.875 15.5 10.875C13.8853 10.875 12.4884 11.8099 11.8115 13.1644C11.7095 12.87 11.5887 12.5843 11.4414 12.3146C12.3481 10.9433 13.8459 10.125 15.5 10.125C18.188 10.125 20.375 12.312 20.375 15C20.375 16.0751 20.0255 17.0914 19.3884 17.9321L19.1514 16.905ZM23 22.875H8C7.793 22.875 7.625 22.707 7.625 22.5V20.5118C8.99938 20.2316 10.1881 19.4453 11 18.3608C11.4327 18.9394 11.9724 19.4272 12.5907 19.8026L12.4501 21.6322L13.3336 21.1898C13.9032 20.9048 14.5745 20.9216 15.1291 21.2186C15.1531 21.7219 15.5667 22.125 16.0756 22.125C16.2639 22.125 16.4461 22.0699 16.6029 21.9653L17.2393 21.5408C17.486 21.9053 17.8951 22.125 18.344 22.125C18.4888 22.125 18.6313 22.1018 18.7666 22.056L19.1292 21.9352C19.6497 21.7616 20 21.276 20 20.727C20 20.6306 19.9891 20.5339 19.9674 20.4409L19.5984 18.8426C20.5813 17.7968 21.125 16.4434 21.125 15C21.125 11.8984 18.6016 9.375 15.5 9.375C13.6993 9.375 12.0549 10.2109 10.9959 11.6336C10.184 10.5521 8.99712 9.768 7.625 9.48825V8.625H23.375V22.5C23.375 22.707 23.207 22.875 23 22.875Z" fill="#0097CE"/>
<path d="M11 1.875H15.875V2.625H11V1.875Z" fill="#0097CE"/>
<path d="M19.3577 2.14203L19.8879 1.61178L21.7626 3.48648L21.2324 4.01673L19.3577 2.14203Z" fill="#0097CE"/>
<path d="M9.125 6.375H9.875V7.125H9.125V6.375Z" fill="#0097CE"/>
<path d="M10.625 6.375H11.375V7.125H10.625V6.375Z" fill="#0097CE"/>
<path d="M12.125 6.375H12.875V7.125H12.125V6.375Z" fill="#0097CE"/>
<path d="M15.125 6.375H17.375V7.125H15.125V6.375Z" fill="#0097CE"/>
<path d="M18.125 6.375H21.125V7.125H18.125V6.375Z" fill="#0097CE"/>
</g>
<defs>
<clipPath id="clip0_253_741">
<rect width="24" height="24" fill="white" transform="translate(0.5)"/>
</clipPath>
</defs>
</svg>
